# xmcd
#
# Track frame offsets: 
#        150
#        21615
#        40104
#        60119
#        84976
#        100073
#        114110
#        133949
#        151717
#        176253
#        187904
#        198193
#        212882
#        220066
#        250223
#
# Disc length: 3656 seconds
#
# Revision: 0
# Processed by: cddbd v1.4PL0 Copyright (c) Steve Scherf et al.
# Submitted via: ExactAudioCopy v0.90a11
#
DISCID=ba0e460f
DTITLE=Buddy Emmons - LIVE in Boston July 1977
DYEAR=1900
DGENRE=
TTITLE0=Blues in C
TTITLE1=Blue Jade
TTITLE2=The Preacher
TTITLE3=Lil Darlin'
TTITLE4=Broken Down in Pieces
TTITLE5=Truck Drivin' Man
TTITLE6=Danny Boy
TTITLE7=Autumn Fling
TTITLE8=Watch What Happens
TTITLE9=Greensleeves
TTITLE10=Kicks to Boot
TTITLE11=King of the Road
TTITLE12=Rasin' the Dickens
TTITLE13=The Great Stream
TTITLE14=FAST Blues in C
EXTD=
EXTT0=
EXTT1=
EXTT2=
EXTT3=
EXTT4=
EXTT5=
EXTT6=
EXTT7=
EXTT8=
EXTT9=
EXTT10=
EXTT11=
EXTT12=
EXTT13=
EXTT14=
PLAYORDER=
